<svg width="959" height="90.33" xmlns="http://www.w3.org/2000/svg" viewBox="0 0 959 90.33" fill="#009FDA"><path fill-rule="evenodd" d="M114.3,176.41h14.91v7.68h38a29.74,29.74,0,1,1,0,59.47h-38v22.28H114.3V243.56H76.74a29.74,29.74,0,1,1,0-59.47H114.3ZM81,199.14H114.3V228.5H81a14.68,14.68,0,1,1,0-29.36Zm82.05,0H129.21V228.5H163a14.68,14.68,0,0,0,0-29.36Zm424.51,9.79h40.74V184.09h18.92V246H628.25V221.13H587.51V246H568.58V184.09h18.93Zm266.08,13V184.09H834.67v56.07a5.94,5.94,0,0,0,6.07,5.81h9.11a6.24,6.24,0,0,0,3.94-1.4L896.59,209v37h18.92V189.9a5.92,5.92,0,0,0-6.07-5.81h-8.92a6.23,6.23,0,0,0-4,1.43Zm-500.37-8.07c0,8.63-7.05,14.73-15.73,14.73H309V199.08h28.47c8.69,0,15.73,6.08,15.73,14.72Zm-11-29.74H300.34a6.68,6.68,0,0,0-4.78,1.86,6.78,6.78,0,0,0-2.09,4.71v76l15.55.12V243.58h33.26a29.75,29.75,0,1,0,0-59.49Zm113.53,0h14.32c4.66,0,8.44,4.07,8.44,9.15V246H462.72V194.4L442.5,240.83a8.37,8.37,0,0,1-7.58,5.15H424.68a8.41,8.41,0,0,1-7.59-5.09l-20.22-46.45V246H381V193.25c0-5.08,3.78-9.15,8.45-9.15H404.9a8.33,8.33,0,0,1,4.64,1.51,8.45,8.45,0,0,1,3,3.84l17.29,43.12,18.2-43.13a8.46,8.46,0,0,1,3.06-3.85A8.31,8.31,0,0,1,455.79,184.09ZM523.15,246c-9.91,0-18.15-1.6-24.5-4.74s-10.29-8.09-11.37-14.34l-.15-.92,16.26-.67.2.66c1.53,5.24,8.11,7.91,19.52,7.91,6.12,0,11.09-.79,14.78-2.34,3.52-1.5,5.22-3.5,5.22-6.15,0-2.39-1.54-4.28-4.71-5.8s-8.33-2.4-14.88-2.4a101.72,101.72,0,0,0-14.17,1.09l-1,.15v-9.93l23.29-12.36H492v-12h58.3a6.81,6.81,0,0,1,7,6.63,6.58,6.58,0,0,1-3.74,5.87L532.86,206.9l1.54.14c17,1.52,25.6,7.71,25.6,18.38a15.65,15.65,0,0,1-1.3,6.51,15.42,15.42,0,0,1-3.88,5.37A29.62,29.62,0,0,1,541.65,244,78.36,78.36,0,0,1,523.15,246ZM943.56,209c2.39-8.09,9.75-12,22.44-12,6.52,0,11.7,1.19,15.39,3.54a11.95,11.95,0,0,1,5.84,8.49ZM1006,218.1c0-22.55-13.45-34-40-34-12.58,0-22.8,2.6-30.36,7.73s-11.56,13-11.56,23.2c0,10.36,3.93,18.21,11.68,23.33S953.94,246,967.06,246c9.87,0,18.11-1.53,24.49-4.53s10.87-7.43,13.17-13l.44-1.12-18.3-.73-.29.33C983,231,976.47,233,967.09,233c-13.47,0-21.21-4.1-23.62-12.3H1006ZM238.68,228.51h27.75V199.1H238.68c-8.73,0-15.81,6.07-15.81,14.7S229.94,228.51,238.68,228.51Zm-4.83-44.42h41.32a6.85,6.85,0,0,1,7,6.68V246H266.43v-2.45H233.85a29.72,29.72,0,1,1,0-59.43Zm484.76,44.42H690.86c-8.74,0-15.82-6.07-15.82-14.71s7.09-14.7,15.82-14.7h27.75Zm8.74-44.42H686a29.72,29.72,0,1,0,0,59.43h32.58V246h15.74v-55.2a6.9,6.9,0,0,0-.59-2.61,6.78,6.78,0,0,0-1.53-2.18,6.88,6.88,0,0,0-4.88-1.89Zm39.07,24.84h40.74V184.09h18.92V246H807.16V221.13H766.42V246H747.49V184.09h18.93Z" transform="translate(-47 -176.41)"></path></svg>